<?xml version="1.0" encoding="utf-8"?>
<!-- Svg Vector Icons : http://www.onlinewebfonts.com/icon -->
<!DOCTYPE svg PUBLIC "-//W3C//DTD SVG 1.1//EN" "http://www.w3.org/Graphics/SVG/1.1/DTD/svg11.dtd">
<svg version="1.1" xmlns="http://www.w3.org/2000/svg" xmlns:xlink="http://www.w3.org/1999/xlink" x="0px" y="0px" viewBox="0 0 1000 1000" enable-background="new 0 0 1000 1000" xml:space="preserve">
<metadata> Svg Vector Icons : http://www.onlinewebfonts.com/icon </metadata>
<g><g><g><path d="M316.3,683.7l40.8-35.8c-71.5-40.8-117.4-112.3-117.4-199c0-101.9,66.4-183.8,153.1-214.2c0,5.1,0,10.1,0,10.1c0,153.1,127.5,280.7,280.7,280.7c5.1,0,10.1,0,10.1,0c-15.2,40.8-40.8,76.6-71.5,101.9l40.8,35.8c45.9-35.8,76.6-86.7,91.8-148.1c5.1-20.5,5.1-35.8,10.1-56c-30.7,10.1-56,15.2-81.6,15.2c-127.5,0-229.7-101.9-229.7-229.7c0-25.6,5.1-51,15.2-76.6c-20.3,0-35.8,5.1-56,10.1c-122.5,30.7-214.3,142.7-214.3,270.5C188.8,546,239.7,632.7,316.3,683.7z"/><path d="M954.2,780.8H673.6L495.1,627.7L316.6,780.8h-281C20.4,780.8,10,791,10,806.4c0,15.5,10.1,25.6,25.6,25.6H347l61.1-51l91.8-76.6l91.8,76.6l61.4,51h311.4c15.2,0,25.6-10.1,25.6-25.6C979.6,791,969.5,780.8,954.2,780.8z"/></g></g><g></g><g></g><g></g><g></g><g></g><g></g><g></g><g></g><g></g><g></g><g></g><g></g><g></g><g></g><g></g></g>
</svg>