<?xml version="1.0" encoding="utf-8"?>
<!-- Svg Vector Icons : http://www.onlinewebfonts.com/icon -->
<!DOCTYPE svg PUBLIC "-//W3C//DTD SVG 1.1//EN" "http://www.w3.org/Graphics/SVG/1.1/DTD/svg11.dtd">
<svg version="1.1" xmlns="http://www.w3.org/2000/svg" xmlns:xlink="http://www.w3.org/1999/xlink" x="0px" y="0px" viewBox="0 0 1000 1000" enable-background="new 0 0 1000 1000" xml:space="preserve">
<metadata> Svg Vector Icons : http://www.onlinewebfonts.com/icon </metadata>
<g><g transform="translate(0.000000,511.000000) scale(0.100000,-0.100000)"><path d="M4333.2,4580.2c-390.9-133.4-814-411.6-1133.6-745c-556.5-579.5-830.1-1262.4-830.1-2069.5c0-535.8,80.5-885.3,321.9-1372.8L2820.1,133h480.6h482.9l-112.7,133.4c-234.6,273.7-397.8,581.8-492.1,924.4c-46,167.9-52.9,248.3-50.6,574.9c0,450.7,36.8,614,213.8,977.3c128.8,264.4,282.8,473.7,476,655.4l135.7,126.5l13.8-310.4c39.1-800.2,370.2-1522.3,947.4-2058C5453,655,6106.1,381.3,6858,346.8l282.8-13.8L7042,231.9l-96.6-98.9h485.2h485.2l82.8,147.2c124.2,223.1,225.4,489.8,225.4,600.2c0,177.1-105.8,310.4-285.1,358.7c-75.9,18.4-121.9,13.8-289.7-34.5c-298.9-87.4-510.5-112.7-809.4-98.9c-940.5,46-1754.5,689.8-2037.3,1616.5c-59.8,188.6-64.4,234.5-64.4,607.1c-2.3,372.5,2.3,418.5,62.1,623.2c75.9,273.6,78.2,379.4,9.2,482.9c-57.5,87.4-223.1,181.7-315,181.7C4461.9,4614.7,4390.6,4598.6,4333.2,4580.2z"/><path d="M283.8-678.7c-239.2-161-246-480.6-13.8-632.4l94.3-62.1H5000h4635.8l94.3,62.1c225.3,149.5,225.3,457.6,0,625.5l-64.4,48.3l-4651.9,6.9l-4651.9,4.6L283.8-678.7z"/><path d="M398.7-2141.2c-179.4-36.8-296.6-184-296.6-377.1c0-119.6,64.4-230,181.7-308.1l78.2-52.9H5000h4638.1l78.2,52.9c239.1,161,246,480.6,13.8,632.4l-94.3,62.1l-4576,2.3C2541.9-2127.4,444.7-2132,398.7-2141.2z"/><path d="M309-3688.8C155-3766.9,95.2-3870.4,106.7-4036c11.5-158.7,62.1-236.8,202.3-308.1l101.2-52.9H5000h4589.8l101.2,50.6c149.5,78.2,195.4,154.1,195.4,328.8c0,174.7-46,250.7-195.4,328.8l-101.2,50.6H5000H410.2L309-3688.8z"/></g></g>
</svg>