<svg xmlns="http://www.w3.org/2000/svg" viewBox="0 0 80 80" width="80" height="80">
	<style>
		tspan { white-space:pre }
		.shp0 { fill: #ffffff } 
	</style>
	<path id="path11" fill-rule="evenodd" class="shp0" d="M61.61 52.54L58.42 55.71C52.05 62.01 46.54 67.46 41.82 75.03L39.97 78L38.13 75.03C33.4 67.46 27.9 62.01 21.51 55.7L18.33 52.55C12.54 46.76 9.35 39.38 9.35 31.77C9.35 24.14 12.54 16.77 18.33 10.98C27.05 2.27 40.07 -0.38 51.51 4.25C55.31 5.79 58.7 8.05 61.62 10.97C73.66 23.01 73.66 40.5 61.61 52.54ZM49.48 23.64C44.23 18.4 35.72 18.4 30.47 23.64C25.22 28.89 25.22 37.4 30.47 42.64C35.72 47.9 44.23 47.9 49.48 42.64C54.71 37.4 54.71 28.89 49.48 23.64Z" />
</svg>