<?xml version="1.0" encoding="utf-8"?>
<!-- Svg Vector Icons : http://www.onlinewebfonts.com/icon -->
<!DOCTYPE svg PUBLIC "-//W3C//DTD SVG 1.1//EN" "http://www.w3.org/Graphics/SVG/1.1/DTD/svg11.dtd">
<svg version="1.1" xmlns="http://www.w3.org/2000/svg" xmlns:xlink="http://www.w3.org/1999/xlink" x="0px" y="0px" viewBox="0 0 1000 1000" enable-background="new 0 0 1000 1000" xml:space="preserve">
<metadata> Svg Vector Icons : http://www.onlinewebfonts.com/icon </metadata>
<g><g transform="translate(0.000000,293.000000) scale(0.100000,-0.100000)"><path d="M3329.2,725.5C2743.3,598.3,2381,27.8,2502.4-575.4c84.8-414.4,343.1-751.6,715-927c296.8-140.7,109.9-134.9,3511.5-129.1l3050.9,5.8l48.2,48.2c102.1,102.1,94.5,262.1-15.4,327.6c-59.8,38.5-117.6,38.5-3091.3,38.5c-2170.1,0-3058.6,5.8-3131.8,21.2c-618.6,131-909.7,911.6-495.3,1326c125.3,125.3,264,183.1,441.3,183.1c281.4,1.9,458.7-160,499.2-454.8c13.5-98.3,27-127.2,77.1-173.5c113.7-102.1,281.4-55.9,329.6,88.7c55.9,171.5-71.3,518.4-262.1,709.2C3953.6,713.9,3656.8,796.8,3329.2,725.5z"/><path d="M702.3,31.7C305.3-80.1,54.8-467.5,106.8-885.7c38.5-316.1,206.2-570.5,485.7-738.1c192.7-115.6,292.9-127.2,1029.2-127.2c609,0,655.3,1.9,711.2,36.6c127.2,77.1,127.2,273.7,0,350.8c-55.9,34.7-102.2,36.6-707.3,36.6c-730.4,0-761.3,3.9-913.5,138.8c-125.3,111.8-188.9,242.8-190.8,400.9c-1.9,154.2,44.3,252.5,158,341.1c86.7,65.5,215.9,96.4,306.4,73.2c28.9-5.8,84.8-44.3,123.3-84.8c59.7-57.8,75.2-92.5,86.7-173.5c23.1-175.4,144.5-264,283.3-206.2c106,44.3,136.8,104.1,125.3,258.3c-11.6,167.7-65.5,287.2-188.9,416.3C1238.1,25.9,956.7,101,702.3,31.7z"/><path d="M4248.5-1963.1c-1709.5-13.5-1601.6-3.9-1917.6-152.3c-668.8-316.1-1052.3-1106.2-867.3-1794.3c94.4-356.5,354.6-674.5,684.2-834.5c504.9-246.7,994.5-179.2,1358.7,186.9c503,506.9,395.1,1316.3-213.9,1605.4c-133,63.6-167.7,71.3-343.1,79c-163.8,5.8-213.9,1.9-318-34.7c-200.4-67.5-366.2-200.4-424-343c-59.7-140.7,42.4-292.9,194.7-292.9c71.3,0,88.6,11.6,177.3,106c115.6,123.3,165.7,144.6,325.7,144.6c292.9-1.9,495.3-208.1,495.3-505c0-427.9-400.9-742-834.5-651.4c-422.1,86.7-726.6,458.7-726.6,886.5c1.9,539.6,377.7,1021.5,896.2,1144.8c129.1,30.8,2027.5,50.1,4922.3,50.1h1547.6l65.5,65.5c100.2,100.2,84.8,246.7-34.7,319.9c-61.7,38.5-94.4,38.5-1759.6,34.7C6543.9-1951.5,5090.7-1957.3,4248.5-1963.1z"/><path d="M4499.1-2732.1c-167.7-52-335.3-198.5-408.6-358.5c-65.5-144.6-63.6-385.5,5.8-530c98.3-206.2,294.9-345,512.7-362.3c92.5-7.7,131-1.9,171.5,23.1c61.7,42.4,111.8,154.2,94.4,221.6c-19.3,75.2-104.1,154.2-181.2,167.7c-169.6,27-233.2,90.6-233.2,231.3c0,54,15.4,84.8,65.5,134.9l65.5,65.5h1987c2177.8,0,2089.2-3.9,2148.9,113.7c57.8,107.9,19.3,244.8-79,289.1C8594.5-2710.8,4578.1-2708.9,4499.1-2732.1z"/></g></g>
</svg>